<svg id="visual" viewBox="0 0 900 450" width="900" height="450" xmlns="http://www.w3.org/2000/svg" xmlns:xlink="http://www.w3.org/1999/xlink" version="1.1"><path d="M0 46L13.7 49C27.3 52 54.7 58 82 59.5C109.3 61 136.7 58 163.8 56.5C191 55 218 55 245.2 59.5C272.3 64 299.7 73 327 73.8C354.3 74.7 381.7 67.3 409 62.8C436.3 58.3 463.7 56.7 491 58.8C518.3 61 545.7 67 573 63.3C600.3 59.7 627.7 46.3 654.8 46.3C682 46.3 709 59.7 736.2 60.3C763.3 61 790.7 49 818 43.8C845.3 38.7 872.7 40.3 886.3 41.2L900 42L900 0L886.3 0C872.7 0 845.3 0 818 0C790.7 0 763.3 0 736.2 0C709 0 682 0 654.8 0C627.7 0 600.3 0 573 0C545.7 0 518.3 0 491 0C463.7 0 436.3 0 409 0C381.7 0 354.3 0 327 0C299.7 0 272.3 0 245.2 0C218 0 191 0 163.8 0C136.7 0 109.3 0 82 0C54.7 0 27.3 0 13.7 0L0 0Z" fill="#ceddf3"></path><path d="M0 109L13.7 112.8C27.3 116.7 54.7 124.3 82 129.7C109.3 135 136.7 138 163.8 137.2C191 136.3 218 131.7 245.2 133.2C272.3 134.7 299.7 142.3 327 138.7C354.3 135 381.7 120 409 111C436.3 102 463.7 99 491 102.7C518.3 106.3 545.7 116.7 573 115.8C600.3 115 627.7 103 654.8 104.5C682 106 709 121 736.2 127C763.3 133 790.7 130 818 131.5C845.3 133 872.7 139 886.3 142L900 145L900 40L886.3 39.2C872.7 38.3 845.3 36.7 818 41.8C790.7 47 763.3 59 736.2 58.3C709 57.7 682 44.3 654.8 44.3C627.7 44.3 600.3 57.7 573 61.3C545.7 65 518.3 59 491 56.8C463.7 54.7 436.3 56.3 409 60.8C381.7 65.3 354.3 72.7 327 71.8C299.7 71 272.3 62 245.2 57.5C218 53 191 53 163.8 54.5C136.7 56 109.3 59 82 57.5C54.7 56 27.3 50 13.7 47L0 44Z" fill="#c4d5f1"></path><path d="M0 222L13.7 230.2C27.3 238.3 54.7 254.7 82 257.7C109.3 260.7 136.7 250.3 163.8 243.7C191 237 218 234 245.2 236.2C272.3 238.3 299.7 245.7 327 250.2C354.3 254.7 381.7 256.3 409 245.8C436.3 235.3 463.7 212.7 491 203.7C518.3 194.7 545.7 199.3 573 216.7C600.3 234 627.7 264 654.8 270.7C682 277.3 709 260.7 736.2 248.7C763.3 236.7 790.7 229.3 818 242.2C845.3 255 872.7 288 886.3 304.5L900 321L900 143L886.3 140C872.7 137 845.3 131 818 129.5C790.7 128 763.3 131 736.2 125C709 119 682 104 654.8 102.5C627.7 101 600.3 113 573 113.8C545.7 114.7 518.3 104.3 491 100.7C463.7 97 436.3 100 409 109C381.7 118 354.3 133 327 136.7C299.7 140.3 272.3 132.7 245.2 131.2C218 129.7 191 134.3 163.8 135.2C136.7 136 109.3 133 82 127.7C54.7 122.3 27.3 114.7 13.7 110.8L0 107Z" fill="#bbccee"></path><path d="M0 289L13.7 298C27.3 307 54.7 325 82 323.5C109.3 322 136.7 301 163.8 292.8C191 284.7 218 289.3 245.2 293.2C272.3 297 299.7 300 327 300.7C354.3 301.3 381.7 299.7 409 292.2C436.3 284.7 463.7 271.3 491 266.8C518.3 262.3 545.7 266.7 573 280.8C600.3 295 627.7 319 654.8 324.3C682 329.7 709 316.3 736.2 302.8C763.3 289.3 790.7 275.7 818 283.8C845.3 292 872.7 322 886.3 337L900 352L900 319L886.3 302.5C872.7 286 845.3 253 818 240.2C790.7 227.3 763.3 234.7 736.2 246.7C709 258.7 682 275.3 654.8 268.7C627.7 262 600.3 232 573 214.7C545.7 197.3 518.3 192.7 491 201.7C463.7 210.7 436.3 233.3 409 243.8C381.7 254.3 354.3 252.7 327 248.2C299.7 243.7 272.3 236.3 245.2 234.2C218 232 191 235 163.8 241.7C136.7 248.3 109.3 258.7 82 255.7C54.7 252.7 27.3 236.3 13.7 228.2L0 220Z" fill="#afc3ec"></path><path d="M0 451L13.7 451C27.3 451 54.7 451 82 451C109.3 451 136.7 451 163.8 451C191 451 218 451 245.2 451C272.3 451 299.7 451 327 451C354.3 451 381.7 451 409 451C436.3 451 463.7 451 491 451C518.3 451 545.7 451 573 451C600.3 451 627.7 451 654.8 451C682 451 709 451 736.2 451C763.3 451 790.7 451 818 451C845.3 451 872.7 451 886.3 451L900 451L900 350L886.3 335C872.7 320 845.3 290 818 281.8C790.7 273.7 763.3 287.3 736.2 300.8C709 314.3 682 327.7 654.8 322.3C627.7 317 600.3 293 573 278.8C545.7 264.7 518.3 260.3 491 264.8C463.7 269.3 436.3 282.7 409 290.2C381.7 297.7 354.3 299.3 327 298.7C299.7 298 272.3 295 245.2 291.2C218 287.3 191 282.7 163.8 290.8C136.7 299 109.3 320 82 321.5C54.7 323 27.3 305 13.7 296L0 287Z" fill="#a4bbe9"></path></svg>