<svg id="visual" viewBox="0 0 960 540" width="960" height="540" xmlns="http://www.w3.org/2000/svg" xmlns:xlink="http://www.w3.org/1999/xlink" version="1.1"><rect x="0" y="0" width="960" height="540" fill="#252422"></rect><path d="M0 195L53.3 190.3C106.7 185.7 213.3 176.3 320 176.8C426.7 177.3 533.3 187.7 640 202.7C746.7 217.7 853.3 237.3 906.7 247.2L960 257L960 541L906.7 541C853.3 541 746.7 541 640 541C533.3 541 426.7 541 320 541C213.3 541 106.7 541 53.3 541L0 541Z" fill="#ef8354"></path><path d="M0 265L53.3 260.7C106.7 256.3 213.3 247.7 320 245.7C426.7 243.7 533.3 248.3 640 248.5C746.7 248.7 853.3 244.3 906.7 242.2L960 240L960 541L906.7 541C853.3 541 746.7 541 640 541C533.3 541 426.7 541 320 541C213.3 541 106.7 541 53.3 541L0 541Z" fill="#ee7946"></path><path d="M0 313L53.3 323.2C106.7 333.3 213.3 353.7 320 354.2C426.7 354.7 533.3 335.3 640 330.2C746.7 325 853.3 334 906.7 338.5L960 343L960 541L906.7 541C853.3 541 746.7 541 640 541C533.3 541 426.7 541 320 541C213.3 541 106.7 541 53.3 541L0 541Z" fill="#ec6e38"></path><path d="M0 410L53.3 402.2C106.7 394.3 213.3 378.7 320 375.5C426.7 372.3 533.3 381.7 640 393.2C746.7 404.7 853.3 418.3 906.7 425.2L960 432L960 541L906.7 541C853.3 541 746.7 541 640 541C533.3 541 426.7 541 320 541C213.3 541 106.7 541 53.3 541L0 541Z" fill="#ea6329"></path><path d="M0 455L53.3 460.8C106.7 466.7 213.3 478.3 320 477.7C426.7 477 533.3 464 640 456.7C746.7 449.3 853.3 447.7 906.7 446.8L960 446L960 541L906.7 541C853.3 541 746.7 541 640 541C533.3 541 426.7 541 320 541C213.3 541 106.7 541 53.3 541L0 541Z" fill="#e85719"></path></svg>